<svg width="135" height="40" viewBox="0 0 135 40" version="1.1" xmlns="http://www.w3.org/2000/svg" xmlns:xlink="http://www.w3.org/1999/xlink">
<title>google-play-badge-de</title>
<desc>Created using Figma</desc>
<g id="Canvas" transform="translate(416 71)">
<g id="google-play-badge-de">
<g id="Vector">
<use xlink:href="#path0_fill" transform="translate(-416 -71)"/>
</g>
<g id="Vector">
<use xlink:href="#path1_fill" transform="translate(-416 -71)" fill="#A6A6A6"/>
</g>
<g id="Vector">
<use xlink:href="#path2_fill" transform="translate(-375.127 -54.005)" fill="#FFFFFF"/>
</g>
<g id="Vector">
<use xlink:href="#path3_fill" transform="translate(-406.024 -63.53)" fill="url(#paint3_linear)"/>
</g>
<g id="Vector">
<use xlink:href="#path4_fill" transform="translate(-393.1 -55.28)" fill="url(#paint4_linear)"/>
</g>
<g id="Vector">
<use xlink:href="#path5_fill" transform="translate(-405.56 -51)" fill="url(#paint5_linear)"/>
</g>
<g id="Vector">
<use xlink:href="#path6_fill" transform="translate(-405.57 -63.8658)" fill="url(#paint6_linear)"/>
</g>
<g id="Vector" opacity="0.2">
<use xlink:href="#path7_fill" transform="translate(-405.56 -46.87)"/>
</g>
<g id="Vector" opacity="0.12">
<use xlink:href="#path8_fill" transform="translate(-406.024 -51)"/>
</g>
<g id="Vector" opacity="0.25">
<use xlink:href="#path9_fill" transform="translate(-406.03 -63.8539)" fill="#FFFFFF"/>
</g>
<g id="Vector">
<use xlink:href="#path10_fill" transform="translate(-374.77 -64.0003)" fill="#FFFFFF"/>
<use xlink:href="#path11_stroke" transform="translate(-374.77 -64.0003)" fill="#FFFFFF"/>
</g>
</g>
</g>
<defs>
<linearGradient id="paint3_linear" x1="0" y1="0" x2="1" y2="0" gradientUnits="userSpaceOnUse" gradientTransform="matrix(-16.78 16.78 16.78 16.78 3.43358 -7.15)">
<stop offset="0" stop-color="#00A0FF"/>
<stop offset="0.01" stop-color="#00A1FF"/>
<stop offset="0.26" stop-color="#00BEFF"/>
<stop offset="0.51" stop-color="#00D2FF"/>
<stop offset="0.76" stop-color="#00DFFF"/>
<stop offset="1" stop-color="#00E3FF"/>
</linearGradient>
<linearGradient id="paint4_linear" x1="0" y1="0" x2="1" y2="0" gradientUnits="userSpaceOnUse" gradientTransform="matrix(-24.19 0 0 24.19 10.93 -7.815)">
<stop offset="0" stop-color="#FFE000"/>
<stop offset="0.41" stop-color="#FFBD00"/>
<stop offset="0.78" stop-color="#FFA500"/>
<stop offset="1" stop-color="#FF9C00"/>
</linearGradient>
<linearGradient id="paint5_linear" x1="0" y1="0" x2="1" y2="0" gradientUnits="userSpaceOnUse" gradientTransform="matrix(-22.76 22.75 22.75 22.76 3.015 -9.08)">
<stop offset="0" stop-color="#FF3A44"/>
<stop offset="1" stop-color="#C31162"/>
</linearGradient>
<linearGradient id="paint6_linear" x1="0" y1="0" x2="1" y2="0" gradientUnits="userSpaceOnUse" gradientTransform="matrix(10.16 10.16 10.16 -10.16 -8.21 -1.87423)">
<stop offset="0" stop-color="#32A071"/>
<stop offset="0.07" stop-color="#2DA771"/>
<stop offset="0.48" stop-color="#15CF74"/>
<stop offset="0.8" stop-color="#06E775"/>
<stop offset="1" stop-color="#00F076"/>
</linearGradient>
<path id="path0_fill" d="M 130 0L 5 0C 2.23858 0 0 2.23858 0 5L 0 35C 0 37.7614 2.23858 40 5 40L 130 40C 132.761 40 135 37.7614 135 35L 135 5C 135 2.23858 132.761 0 130 0Z"/>
<path id="path1_fill" d="M 130 0.8C 131.114 0.8 132.182 1.2425 132.97 2.03015C 133.758 2.8178 134.2 3.88609 134.2 5L 134.2 35C 134.2 36.1139 133.758 37.1822 132.97 37.9698C 132.182 38.7575 131.114 39.2 130 39.2L 5 39.2C 3.88609 39.2 2.8178 38.7575 2.03015 37.9698C 1.2425 37.1822 0.8 36.1139 0.8 35L 0.8 5C 0.8 3.88609 1.2425 2.8178 2.03015 2.03015C 2.8178 1.2425 3.88609 0.8 5 0.8L 130 0.8ZM 130 0L 5 0C 3.67392 1.77636e-15 2.40215 0.526784 1.46447 1.46447C 0.526784 2.40215 3.55271e-15 3.67392 1.77636e-15 5L 1.77636e-15 35C 3.55271e-15 36.3261 0.526784 37.5979 1.46447 38.5355C 2.40215 39.4732 3.67392 40 5 40L 130 40C 131.326 40 132.598 39.4732 133.536 38.5355C 134.473 37.5979 135 36.3261 135 35L 135 5C 135 3.67392 134.473 2.40215 133.536 1.46447C 132.598 0.526784 131.326 1.77636e-15 130 0Z"/>
<path id="path2_fill" d="M 27.267 4.755C 26.4273 4.75895 25.6076 5.01156 24.9114 5.48096C 24.2151 5.95035 23.6735 6.61548 23.3548 7.39241C 23.0362 8.16933 22.9549 9.02323 23.1212 9.84633C 23.2874 10.6694 23.6937 11.4248 24.2889 12.0172C 24.8841 12.6096 25.6414 13.0124 26.4652 13.1747C 27.2891 13.3371 28.1426 13.2518 28.918 12.9295C 29.6935 12.6073 30.356 12.0626 30.8222 11.3641C 31.2883 10.6656 31.537 9.84472 31.5371 9.005C 31.5452 8.44294 31.4402 7.88498 31.2282 7.36434C 31.0163 6.84371 30.7017 6.37105 30.3033 5.97451C 29.9049 5.57796 29.4308 5.26563 28.9091 5.05612C 28.3875 4.84662 27.8291 4.74421 27.267 4.755L 27.267 4.755ZM 27.267 11.585C 26.7506 11.6211 26.2353 11.501 25.788 11.2404C 25.3407 10.9797 24.9822 10.5906 24.7591 10.1234C 24.5359 9.65632 24.4584 9.13288 24.5367 8.62115C 24.615 8.10942 24.8454 7.63308 25.198 7.25404C 25.5506 6.875 26.0091 6.6108 26.5138 6.49578C 27.0186 6.38075 27.5462 6.42023 28.0282 6.60908C 28.5102 6.79793 28.9243 7.12742 29.2166 7.55471C 29.5088 7.98199 29.6658 8.48732 29.6671 9.005C 29.6832 9.33301 29.6334 9.66093 29.5208 9.96942C 29.4081 10.2779 29.2349 10.5607 29.0112 10.8012C 28.7875 11.0416 28.5179 11.2349 28.2184 11.3695C 27.9188 11.5041 27.5954 11.5774 27.267 11.585ZM 17.9571 4.755C 17.1169 4.75698 16.2962 5.00792 15.5986 5.47611C 14.901 5.94431 14.3578 6.60875 14.0377 7.38551C 13.7176 8.16227 13.6348 9.01649 13.7999 9.84025C 13.965 10.664 14.3706 11.4203 14.9654 12.0137C 15.5602 12.6071 16.3174 13.0109 17.1416 13.1741C 17.9657 13.3372 18.8198 13.2525 19.5958 12.9305C 20.3718 12.6086 21.0349 12.0638 21.5015 11.3651C 21.968 10.6664 22.217 9.84514 22.217 9.005C 22.2252 8.44294 22.1202 7.88498 21.9082 7.36434C 21.6963 6.84371 21.3817 6.37105 20.9833 5.97451C 20.5849 5.57796 20.1108 5.26563 19.5891 5.05612C 19.0675 4.84662 18.5091 4.74421 17.9471 4.755L 17.9571 4.755ZM 17.9571 11.585C 17.4404 11.6232 16.9242 11.5049 16.4757 11.2456C 16.0272 10.9862 15.6671 10.5979 15.4424 10.1311C 15.2177 9.66429 15.1387 9.14065 15.2157 8.62833C 15.2928 8.11601 15.5223 7.63876 15.8744 7.25869C 16.2264 6.87863 16.6848 6.61336 17.1897 6.49743C 17.6947 6.3815 18.2228 6.42027 18.7054 6.60869C 19.188 6.79712 19.6027 7.12647 19.8955 7.55387C 20.1883 7.98127 20.3456 8.48692 20.3471 9.005C 20.3632 9.33301 20.3134 9.66093 20.2008 9.96942C 20.0881 10.2779 19.9149 10.5607 19.6912 10.8012C 19.4675 11.0416 19.1979 11.2349 18.8984 11.3695C 18.5988 11.5041 18.2754 11.5774 17.9471 11.585L 17.9571 11.585ZM 6.86705 6.065L 6.86705 7.865L 11.1871 7.865C 11.1193 8.7128 10.7669 9.5128 10.1871 10.135C 9.75485 10.5752 9.23528 10.9201 8.66176 11.1475C 8.08825 11.3748 7.47349 11.4796 6.85705 11.455C 5.58401 11.455 4.36311 10.9493 3.46294 10.0491C 2.56276 9.14894 2.05705 7.92804 2.05705 6.655C 2.05705 5.38196 2.56276 4.16106 3.46294 3.26089C 4.36311 2.36071 5.58401 1.855 6.85705 1.855C 8.07485 1.83514 9.25081 2.29905 10.1271 3.145L 11.3971 1.875C 10.8055 1.27603 10.0998 0.801883 9.32166 0.480668C 8.54353 0.159453 7.70884 -0.00229839 6.86705 0.00500027C 5.97805 -0.0295976 5.09121 0.115626 4.25967 0.43197C 3.42814 0.748314 2.66902 1.22927 2.02781 1.84601C 1.3866 2.46275 0.876485 3.20259 0.528044 4.0212C 0.179602 4.8398 -1.72845e-06 5.72032 -1.72845e-06 6.61C -1.72845e-06 7.49968 0.179602 8.3802 0.528044 9.1988C 0.876485 10.0174 1.3866 10.7572 2.02781 11.374C 2.66902 11.9907 3.42814 12.4717 4.25967 12.788C 5.09121 13.1044 5.97805 13.2496 6.86705 13.215C 7.723 13.2537 8.57731 13.1086 9.37249 12.7895C 10.1677 12.4704 10.8853 11.9846 11.477 11.365C 12.5247 10.2139 13.0841 8.70076 13.0371 7.145C 13.0403 6.76599 13.0068 6.38755 12.9371 6.015L 6.86705 6.065ZM 52.1771 7.465C 51.9163 6.69774 51.4286 6.02778 50.7786 5.54385C 50.1285 5.05991 49.3469 4.78482 48.5371 4.755C 47.9901 4.75393 47.4486 4.86507 46.9463 5.08153C 46.4439 5.298 45.9913 5.61521 45.6164 6.01353C 45.2415 6.41186 44.9523 6.88285 44.7667 7.39738C 44.581 7.91192 44.5029 8.45907 44.5371 9.005C 44.5249 9.56391 44.6255 10.1195 44.8329 10.6387C 45.0403 11.1578 45.3502 11.6299 45.7441 12.0266C 46.138 12.4233 46.6078 12.7365 47.1255 12.9476C 47.6432 13.1586 48.1981 13.2632 48.757 13.255C 49.4566 13.2588 50.1461 13.089 50.7639 12.7609C 51.3817 12.4328 51.9084 11.9566 52.2971 11.375L 50.8471 10.375C 50.6306 10.7358 50.3243 11.0342 49.9579 11.241C 49.5915 11.4479 49.1778 11.5561 48.757 11.555C 48.3239 11.5715 47.8958 11.4573 47.5284 11.2272C 47.161 10.9972 46.8713 10.6619 46.6971 10.265L 52.3871 7.915L 52.1771 7.465ZM 46.3771 8.885C 46.3568 8.57569 46.3984 8.26545 46.4996 7.97244C 46.6007 7.67943 46.7593 7.40955 46.966 7.17859C 47.1728 6.94764 47.4235 6.76026 47.7036 6.62742C 47.9836 6.49459 48.2874 6.41897 48.5971 6.405C 48.9196 6.38375 49.2413 6.45771 49.5222 6.61771C 49.8031 6.77771 50.0308 7.0167 50.1771 7.305L 46.3771 8.885ZM 41.757 13.005L 43.6271 13.005L 43.6271 0.505L 41.757 0.505L 41.757 13.005ZM 38.6971 5.705L 38.6271 5.705C 38.3452 5.3899 38 5.13792 37.6139 4.96558C 37.2279 4.79325 36.8098 4.70445 36.3871 4.705C 35.2942 4.75799 34.2637 5.22942 33.509 6.02158C 32.7543 6.81374 32.3334 7.8659 32.3334 8.96C 32.3334 10.0541 32.7543 11.1063 33.509 11.8984C 34.2637 12.6906 35.2942 13.162 36.3871 13.215C 36.8108 13.2221 37.231 13.1363 37.618 12.9635C 38.005 12.7907 38.3494 12.5352 38.6271 12.215L 38.687 12.215L 38.687 12.825C 38.687 14.455 37.8171 15.325 36.4171 15.325C 35.9508 15.3141 35.4983 15.1647 35.1172 14.8958C 34.7361 14.6269 34.4436 14.2506 34.2771 13.815L 32.647 14.495C 32.9539 15.2414 33.4767 15.879 34.1484 16.3263C 34.8201 16.7735 35.6101 17.0098 36.4171 17.005C 38.6071 17.005 40.4171 15.715 40.4171 12.575L 40.4171 5.005L 38.6971 5.005L 38.6971 5.705ZM 36.5571 11.585C 35.912 11.5282 35.3116 11.2317 34.8743 10.7542C 34.437 10.2766 34.1944 9.65255 34.1944 9.005C 34.1944 8.35745 34.437 7.73339 34.8743 7.25583C 35.3116 6.77827 35.912 6.48185 36.5571 6.425C 36.8769 6.44141 37.1902 6.52167 37.4785 6.66104C 37.7668 6.8004 38.0244 6.99606 38.2359 7.2365C 38.4474 7.47693 38.6087 7.75726 38.7103 8.06099C 38.8118 8.36471 38.8515 8.68569 38.827 9.005C 38.8543 9.32569 38.8163 9.64859 38.7152 9.95415C 38.6141 10.2597 38.4521 10.5416 38.239 10.7828C 38.0259 11.024 37.7661 11.2194 37.4752 11.3573C 37.1844 11.4952 36.8687 11.5726 36.5471 11.585L 36.5571 11.585ZM 60.937 0.505L 56.467 0.505L 56.467 13.005L 58.3371 13.005L 58.3371 8.265L 60.9471 8.265C 61.48 8.30329 62.0151 8.23137 62.5191 8.05373C 63.023 7.87609 63.4849 7.59653 63.8761 7.23249C 64.2672 6.86846 64.5791 6.42774 64.7924 5.93783C 65.0057 5.44793 65.1158 4.91933 65.1158 4.385C 65.1158 3.85067 65.0057 3.32208 64.7924 2.83217C 64.5791 2.34226 64.2672 1.90154 63.8761 1.53751C 63.4849 1.17347 63.023 0.893915 62.5191 0.716273C 62.0151 0.538632 61.48 0.466712 60.9471 0.505L 60.937 0.505ZM 60.937 6.505L 58.327 6.505L 58.327 2.245L 60.9771 2.245C 61.5459 2.245 62.0915 2.47099 62.4938 2.87326C 62.8961 3.27552 63.1221 3.82111 63.1221 4.39C 63.1221 4.95889 62.8961 5.50448 62.4938 5.90674C 62.0915 6.30901 61.5459 6.535 60.9771 6.535L 60.937 6.505ZM 72.467 4.705C 71.7863 4.66431 71.1084 4.8234 70.5168 5.16272C 69.9252 5.50205 69.4457 6.00682 69.1371 6.615L 70.7971 7.305C 70.9607 7.00335 71.2086 6.75579 71.5104 6.59245C 71.8122 6.42911 72.155 6.35703 72.4971 6.385C 72.7344 6.35728 72.975 6.3771 73.2046 6.44332C 73.4343 6.50955 73.6484 6.62084 73.8346 6.77071C 74.0208 6.92058 74.1752 7.10602 74.289 7.31622C 74.4027 7.52642 74.4734 7.75717 74.4971 7.995L 74.4971 8.125C 73.8964 7.807 73.2266 7.64212 72.5471 7.645C 70.7571 7.645 68.9471 8.645 68.9471 10.455C 68.9647 10.8409 69.0596 11.2194 69.226 11.5681C 69.3925 11.9167 69.6272 12.2284 69.9162 12.4848C 70.2052 12.7412 70.5427 12.937 70.9087 13.0607C 71.2747 13.1844 71.6618 13.2335 72.0471 13.205C 72.518 13.2388 72.9893 13.1452 73.4116 12.9341C 73.8339 12.723 74.1916 12.402 74.4471 12.005L 74.507 12.005L 74.507 13.005L 76.3071 13.005L 76.3071 8.195C 76.3071 6.005 74.6471 4.735 72.5171 4.735L 72.467 4.705ZM 72.2371 11.555C 71.6271 11.555 70.7771 11.245 70.7771 10.495C 70.7771 9.495 71.8371 9.165 72.7771 9.165C 73.3711 9.15034 73.9582 9.29539 74.4771 9.585C 74.4145 10.1264 74.1584 10.627 73.756 10.9945C 73.3536 11.362 72.8319 11.5717 72.2871 11.585L 72.2371 11.555ZM 82.8671 5.005L 80.7271 10.425L 80.667 10.425L 78.4471 5.005L 76.4471 5.005L 79.777 12.585L 77.8771 16.795L 79.827 16.795L 84.9471 5.005L 82.8671 5.005ZM 66.0571 13.005L 67.9271 13.005L 67.9271 0.505L 66.0571 0.505L 66.0571 13.005Z"/>
<path id="path3_fill" d="M 0.463583 0.0700009C 0.137648 0.461109 -0.0268646 0.961795 0.00358175 1.47L 0.00358175 23.59C -0.0268646 24.0982 0.137648 24.5989 0.463583 24.99L 0.533582 25.06L 12.9236 12.68L 12.9236 12.39L 0.533582 -6.86646e-07L 0.463583 0.0700009Z"/>
<path id="path4_fill" d="M 4.1 8.56L 1.52588e-06 4.43L 1.52588e-06 4.14L 4.1 -6.86646e-07L 4.19 0.0500005L 9.1 2.84C 10.5 3.63 10.5 4.93 9.1 5.73L 4.21 8.51L 4.1 8.56Z"/>
<path id="path5_fill" d="M 16.68 4.22L 12.46 0L 5.34058e-07 12.46C 0.285363 12.7109 0.649391 12.8541 1.02918 12.8651C 1.40897 12.876 1.78065 12.754 2.08 12.52L 16.69 4.22"/>
<path id="path6_fill" d="M 16.69 8.64577L 2.08 0.345771C 1.78065 0.111785 1.40897 -0.0102774 1.02918 0.000677974C 0.649393 0.0116334 0.285363 0.154919 3.05176e-07 0.405772L 12.47 12.8658L 16.69 8.64577Z"/>
<path id="path7_fill" d="M 16.56 1.06812e-06L 2.07 8.25C 1.78129 8.46586 1.43048 8.5825 1.07 8.5825C 0.709517 8.5825 0.35871 8.46586 0.0700002 8.25L 5.34058e-07 8.32L 0.0700002 8.39C 0.358056 8.6074 0.709113 8.72501 1.07 8.72501C 1.43089 8.72501 1.78194 8.6074 2.07 8.39L 16.68 0.0900012L 16.56 1.06812e-06Z"/>
<path id="path8_fill" d="M 0.463583 12.32C 0.137648 11.9289 -0.0268646 11.4282 0.00358175 10.92L 0.00358175 11.07C -0.0268646 11.5782 0.137648 12.0789 0.463583 12.47L 0.533582 12.4L 0.463583 12.32ZM 22.0236 1.3L 17.0236 4.13L 17.1136 4.22L 22.0236 1.44C 22.3022 1.30913 22.5413 1.10708 22.7169 0.854256C 22.8925 0.60143 22.9983 0.306767 23.0236 -3.55271e-15C 22.9673 0.278707 22.848 0.540812 22.6746 0.766174C 22.5013 0.991536 22.2785 1.17415 22.0236 1.3Z"/>
<path id="path9_fill" d="M 2.54 0.473942L 22.03 11.5539C 22.285 11.6798 22.5077 11.8624 22.681 12.0878C 22.8544 12.3131 22.9738 12.5752 23.03 12.8539C 23.0047 12.5472 22.8989 12.2525 22.7233 11.9997C 22.5478 11.7469 22.3086 11.5448 22.03 11.4139L 2.54 0.333941C 1.14 -0.456059 -6.86646e-07 0.203942 -6.86646e-07 1.80394L -6.86646e-07 1.95394C 0.0299993 0.343942 1.15 -0.316058 2.54 0.473942L 2.54 0.473942Z"/>
<path id="path10_fill" d="M 1.77 6.13031C 1.36619 6.14399 0.970214 6.01671 0.650001 5.77031C 0.336673 5.51085 0.10992 5.162 -4.57764e-07 4.77031L 0.7 4.48031C 0.73647 4.74535 0.868278 4.98801 1.07075 5.16287C 1.27322 5.33773 1.53248 5.43281 1.8 5.43031C 1.95608 5.44097 2.11249 5.41485 2.25664 5.35406C 2.40079 5.29327 2.52867 5.19951 2.63 5.08031C 2.83479 4.81114 2.93754 4.47808 2.92 4.14031L 2.92 0.000314131L 3.69 0.000314131L 3.69 4.09031C 3.70905 4.36564 3.67091 4.64194 3.57797 4.90181C 3.48504 5.16168 3.33932 5.3995 3.15 5.60031C 2.96773 5.77732 2.75147 5.91555 2.51428 6.00664C 2.27709 6.09774 2.0239 6.13981 1.77 6.13031L 1.77 6.13031ZM 8.48 0.740314L 5.77 0.740314L 5.77 2.64031L 8.23 2.64031L 8.23 3.36031L 5.77 3.36031L 5.77 5.26031L 8.5 5.26031L 8.5 6.00031L 4.97 6.00031L 4.97 0.000314131L 8.47 0.000314131L 8.48 0.740314ZM 11.77 6.00031L 11 6.00031L 11 0.740314L 9.28 0.740314L 9.28 0.000314131L 13.4 0.000314131L 13.4 0.740314L 11.77 0.740314L 11.77 6.00031ZM 14.04 6.00031L 14.04 5.20031L 17.23 0.740314L 14.17 0.740314L 14.17 0.000314131L 18.17 0.000314131L 18.17 0.800313L 14.98 5.26031L 18.21 5.26031L 18.21 6.00031L 14.04 6.00031ZM 21.31 6.00031L 20.54 6.00031L 20.54 0.740314L 18.87 0.740314L 18.87 0.000314131L 22.99 0.000314131L 22.99 0.740314L 21.31 0.740314L 21.31 6.00031ZM 25.97 6.00031L 25.97 0.000314131L 28.14 0.000314131C 28.5906 -0.00819506 29.0272 0.156446 29.36 0.460313C 29.5271 0.605328 29.6603 0.785292 29.7501 0.987472C 29.84 1.18965 29.8843 1.40911 29.88 1.63031C 29.8847 1.89688 29.8079 2.15852 29.66 2.38031C 29.5132 2.59574 29.3087 2.76554 29.07 2.87032C 29.3601 2.96634 29.6145 3.14755 29.8 3.39031C 29.9923 3.63532 30.0947 3.9389 30.09 4.25031C 30.0951 4.48085 30.0494 4.70967 29.956 4.92053C 29.8627 5.13138 29.7241 5.31909 29.55 5.47031C 29.2018 5.7915 28.7437 5.96688 28.27 5.96031L 25.97 6.00031ZM 26.77 2.57031L 28.17 2.57031C 28.3007 2.57577 28.4311 2.55265 28.552 2.50257C 28.6729 2.45248 28.7814 2.37664 28.87 2.28031C 28.9528 2.19765 29.0186 2.09945 29.0634 1.99134C 29.1083 1.88324 29.1314 1.76735 29.1314 1.65031C 29.1314 1.53328 29.1083 1.41739 29.0634 1.30929C 29.0186 1.20118 28.9528 1.10298 28.87 1.02031C 28.7864 0.925788 28.6831 0.850807 28.5673 0.800689C 28.4515 0.750572 28.3261 0.726545 28.2 0.730314L 26.77 0.730314L 26.77 2.57031ZM 26.77 5.26031L 28.32 5.26031C 28.4554 5.26486 28.5902 5.23943 28.7147 5.18584C 28.8391 5.13225 28.9502 5.05182 29.04 4.95031C 29.2163 4.76744 29.3164 4.52432 29.32 4.27031C 29.32 4.0051 29.2146 3.75074 29.0271 3.56321C 28.8396 3.37567 28.5852 3.27031 28.32 3.27031L 26.77 3.27031L 26.77 5.26031ZM 34.62 0.740314L 31.89 0.740314L 31.89 2.64031L 34.35 2.64031L 34.35 3.36031L 31.89 3.36031L 31.89 5.26031L 34.62 5.26031L 34.62 6.00031L 31.12 6.00031L 31.12 0.000314131L 34.62 0.000314131L 34.62 0.740314ZM 35.83 6.00031L 35.83 0.000314131L 36.6 0.000314131L 36.6 6.00031L 35.83 6.00031Z"/>
<path id="path11_stroke" d="M 0.650001 5.77031L 0.58618 5.84738L 0.589018 5.84957L 0.650001 5.77031ZM -4.57764e-07 4.77031L -0.0382746 4.67793L -0.120259 4.71189L -0.0962809 4.79733L -4.57764e-07 4.77031ZM 0.7 4.48031L 0.799067 4.46668L 0.781407 4.33835L 0.661726 4.38793L 0.7 4.48031ZM 1.8 5.43031L 1.80683 5.33025L 1.79907 5.33032L 1.8 5.43031ZM 2.63 5.08031L 2.7063 5.14518L 2.70959 5.14086L 2.63 5.08031ZM 2.92 4.14031L 2.81987 4.14031L 2.82014 4.1455L 2.92 4.14031ZM 2.92 0.000314131L 2.92 -0.0996859L 2.82 -0.0996859L 2.82 0.000314131L 2.92 0.000314131ZM 3.69 0.000314131L 3.79 0.000314131L 3.79 -0.0996859L 3.69 -0.0996859L 3.69 0.000314131ZM 3.69 4.09031L 3.58976 4.09031L 3.59024 4.09722L 3.69 4.09031ZM 3.15 5.60031L 3.21974 5.67212L 3.22276 5.66891L 3.15 5.60031ZM 8.48 0.740314L 8.48 0.840314L 8.58136 0.840314L 8.57999 0.738963L 8.48 0.740314ZM 5.77 0.740314L 5.77 0.640314L 5.67 0.640314L 5.67 0.740314L 5.77 0.740314ZM 5.77 2.64031L 5.67 2.64031L 5.67 2.74031L 5.77 2.74031L 5.77 2.64031ZM 8.23 2.64031L 8.33 2.64031L 8.33 2.54031L 8.23 2.54031L 8.23 2.64031ZM 8.23 3.36031L 8.23 3.46031L 8.33 3.46031L 8.33 3.36031L 8.23 3.36031ZM 5.77 3.36031L 5.77 3.26031L 5.67 3.26031L 5.67 3.36031L 5.77 3.36031ZM 5.77 5.26031L 5.67 5.26031L 5.67 5.36031L 5.77 5.36031L 5.77 5.26031ZM 8.5 5.26031L 8.6 5.26031L 8.6 5.16031L 8.5 5.16031L 8.5 5.26031ZM 8.5 6.00031L 8.5 6.10031L 8.6 6.10031L 8.6 6.00031L 8.5 6.00031ZM 4.97 6.00031L 4.87 6.00031L 4.87 6.10031L 4.97 6.10031L 4.97 6.00031ZM 4.97 0.000314131L 4.97 -0.0996859L 4.87 -0.0996859L 4.87 0.000314131L 4.97 0.000314131ZM 8.47 0.000314131L 8.56999 -0.00103687L 8.56866 -0.0996859L 8.47 -0.0996859L 8.47 0.000314131ZM 11.77 6.00031L 11.77 6.10031L 11.87 6.10031L 11.87 6.00031L 11.77 6.00031ZM 11 6.00031L 10.9 6.00031L 10.9 6.10031L 11 6.10031L 11 6.00031ZM 11 0.740314L 11.1 0.740314L 11.1 0.640314L 11 0.640314L 11 0.740314ZM 9.28 0.740314L 9.18 0.740314L 9.18 0.840314L 9.28 0.840314L 9.28 0.740314ZM 9.28 0.000314131L 9.28 -0.0996859L 9.18 -0.0996859L 9.18 0.000314131L 9.28 0.000314131ZM 13.4 0.000314131L 13.5 0.000314131L 13.5 -0.0996859L 13.4 -0.0996859L 13.4 0.000314131ZM 13.4 0.740314L 13.4 0.840314L 13.5 0.840314L 13.5 0.740314L 13.4 0.740314ZM 11.77 0.740314L 11.77 0.640314L 11.67 0.640314L 11.67 0.740314L 11.77 0.740314ZM 14.04 6.00031L 13.94 6.00031L 13.94 6.10031L 14.04 6.10031L 14.04 6.00031ZM 14.04 5.20031L 13.9587 5.14214L 13.94 5.16823L 13.94 5.20031L 14.04 5.20031ZM 17.23 0.740314L 17.3113 0.798489L 17.4245 0.640314L 17.23 0.640314L 17.23 0.740314ZM 14.17 0.740314L 14.07 0.740314L 14.07 0.840314L 14.17 0.840314L 14.17 0.740314ZM 14.17 0.000314131L 14.17 -0.0996859L 14.07 -0.0996859L 14.07 0.000314131L 14.17 0.000314131ZM 18.17 0.000314131L 18.27 0.000314131L 18.27 -0.0996859L 18.17 -0.0996859L 18.17 0.000314131ZM 18.17 0.800313L 18.2513 0.858489L 18.27 0.832395L 18.27 0.800313L 18.17 0.800313ZM 14.98 5.26031L 14.8987 5.20214L 14.7855 5.36031L 14.98 5.36031L 14.98 5.26031ZM 18.21 5.26031L 18.31 5.26031L 18.31 5.16031L 18.21 5.16031L 18.21 5.26031ZM 18.21 6.00031L 18.21 6.10031L 18.31 6.10031L 18.31 6.00031L 18.21 6.00031ZM 21.31 6.00031L 21.31 6.10031L 21.41 6.10031L 21.41 6.00031L 21.31 6.00031ZM 20.54 6.00031L 20.44 6.00031L 20.44 6.10031L 20.54 6.10031L 20.54 6.00031ZM 20.54 0.740314L 20.64 0.740314L 20.64 0.640314L 20.54 0.640314L 20.54 0.740314ZM 18.87 0.740314L 18.77 0.740314L 18.77 0.840314L 18.87 0.840314L 18.87 0.740314ZM 18.87 0.000314131L 18.87 -0.0996859L 18.77 -0.0996859L 18.77 0.000314131L 18.87 0.000314131ZM 22.99 0.000314131L 23.09 0.000314131L 23.09 -0.0996859L 22.99 -0.0996859L 22.99 0.000314131ZM 22.99 0.740314L 22.99 0.840314L 23.09 0.840314L 23.09 0.740314L 22.99 0.740314ZM 21.31 0.740314L 21.31 0.640314L 21.21 0.640314L 21.21 0.740314L 21.31 0.740314ZM 25.97 6.00031L 25.87 6.00031L 25.87 6.10207L 25.9717 6.1003L 25.97 6.00031ZM 25.97 0.000314131L 25.97 -0.0996859L 25.87 -0.0996859L 25.87 0.000314131L 25.97 0.000314131ZM 28.14 0.000314131L 28.14 0.100332L 28.1419 0.100296L 28.14 0.000314131ZM 29.36 0.460313L 29.2925 0.534183L 29.2945 0.535838L 29.36 0.460313ZM 29.88 1.63031L 29.78 1.62835L 29.78 1.63207L 29.88 1.63031ZM 29.66 2.38031L 29.7426 2.43663L 29.7432 2.43581L 29.66 2.38031ZM 29.07 2.87032L 29.0298 2.77875L 28.7913 2.88341L 29.0386 2.96525L 29.07 2.87032ZM 29.8 3.39031L 29.7205 3.45104L 29.7213 3.45205L 29.8 3.39031ZM 30.09 4.25031L 29.9899 4.24882L 29.99 4.25253L 30.09 4.25031ZM 29.55 5.47031L 29.4844 5.39479L 29.4822 5.39681L 29.55 5.47031ZM 28.27 5.96031L 28.2714 5.86027L 28.2683 5.86033L 28.27 5.96031ZM 26.77 2.57031L 26.67 2.57031L 26.67 2.67031L 26.77 2.67031L 26.77 2.57031ZM 28.17 2.57031L 28.1742 2.47031L 28.17 2.47031L 28.17 2.57031ZM 28.87 2.28031L 28.7993 2.20946L 28.7964 2.21262L 28.87 2.28031ZM 28.87 1.02031L 28.7949 1.08668L 28.7994 1.0911L 28.87 1.02031ZM 28.2 0.730314L 28.2 0.830358L 28.203 0.830269L 28.2 0.730314ZM 26.77 0.730314L 26.77 0.630314L 26.67 0.630314L 26.67 0.730314L 26.77 0.730314ZM 26.77 5.26031L 26.67 5.26031L 26.67 5.36031L 26.77 5.36031L 26.77 5.26031ZM 28.32 5.26031L 28.3234 5.16031L 28.32 5.16031L 28.32 5.26031ZM 29.04 4.95031L 28.9679 4.88084L 28.9651 4.88407L 29.04 4.95031ZM 29.32 4.27031L 29.42 4.27172L 29.42 4.27031L 29.32 4.27031ZM 26.77 3.27031L 26.77 3.17031L 26.67 3.17031L 26.67 3.27031L 26.77 3.27031ZM 34.62 0.740314L 34.62 0.840314L 34.72 0.840314L 34.72 0.740314L 34.62 0.740314ZM 31.89 0.740314L 31.89 0.640314L 31.79 0.640314L 31.79 0.740314L 31.89 0.740314ZM 31.89 2.64031L 31.79 2.64031L 31.79 2.74031L 31.89 2.74031L 31.89 2.64031ZM 34.35 2.64031L 34.45 2.64031L 34.45 2.54031L 34.35 2.54031L 34.35 2.64031ZM 34.35 3.36031L 34.35 3.46031L 34.45 3.46031L 34.45 3.36031L 34.35 3.36031ZM 31.89 3.36031L 31.89 3.26031L 31.79 3.26031L 31.79 3.36031L 31.89 3.36031ZM 31.89 5.26031L 31.79 5.26031L 31.79 5.36031L 31.89 5.36031L 31.89 5.26031ZM 34.62 5.26031L 34.72 5.26031L 34.72 5.16031L 34.62 5.16031L 34.62 5.26031ZM 34.62 6.00031L 34.62 6.10031L 34.72 6.10031L 34.72 6.00031L 34.62 6.00031ZM 31.12 6.00031L 31.02 6.00031L 31.02 6.10031L 31.12 6.10031L 31.12 6.00031ZM 31.12 0.000314131L 31.12 -0.0996859L 31.02 -0.0996859L 31.02 0.000314131L 31.12 0.000314131ZM 34.62 0.000314131L 34.72 0.000314131L 34.72 -0.0996859L 34.62 -0.0996859L 34.62 0.000314131ZM 35.83 6.00031L 35.73 6.00031L 35.73 6.10031L 35.83 6.10031L 35.83 6.00031ZM 35.83 0.000314131L 35.83 -0.0996859L 35.73 -0.0996859L 35.73 0.000314131L 35.83 0.000314131ZM 36.6 0.000314131L 36.7 0.000314131L 36.7 -0.0996859L 36.6 -0.0996859L 36.6 0.000314131ZM 36.6 6.00031L 36.6 6.10031L 36.7 6.10031L 36.7 6.00031L 36.6 6.00031ZM 1.76662 6.03037C 1.38602 6.04326 1.01279 5.9233 0.710984 5.69106L 0.589018 5.84957C 0.927634 6.11012 1.34637 6.24472 1.77338 6.23026L 1.76662 6.03037ZM 0.713782 5.69329C 0.41612 5.4468 0.200704 5.11539 0.09628 4.74329L -0.0962809 4.79733C 0.0191357 5.2086 0.257227 5.57489 0.586221 5.84733L 0.713782 5.69329ZM 0.0382736 4.8627L 0.738274 4.5727L 0.661726 4.38793L -0.0382746 4.67793L 0.0382736 4.8627ZM 0.600934 4.49395C 0.640719 4.78307 0.784509 5.04779 1.00539 5.23855L 1.13611 5.08719C 0.952046 4.92822 0.832221 4.70762 0.799067 4.46668L 0.600934 4.49395ZM 1.00539 5.23855C 1.22627 5.42931 1.50909 5.53303 1.80093 5.53031L 1.79907 5.33032C 1.55587 5.33259 1.32018 5.24615 1.13611 5.08719L 1.00539 5.23855ZM 1.79319 5.53008C 1.96488 5.5418 2.13693 5.51307 2.2955 5.4462L 2.21779 5.26192C 2.08805 5.31663 1.94728 5.34013 1.80681 5.33055L 1.79319 5.53008ZM 2.2955 5.4462C 2.45406 5.37934 2.59473 5.2762 2.70619 5.14508L 2.55381 5.01555C 2.46262 5.12282 2.34752 5.20721 2.21779 5.26192L 2.2955 5.4462ZM 2.70959 5.14086C 2.9287 4.85286 3.03863 4.49652 3.01987 4.13513L 2.82014 4.1455C 2.83645 4.45965 2.74088 4.76941 2.55041 5.01977L 2.70959 5.14086ZM 3.02 4.14031L 3.02 0.000314131L 2.82 0.000314131L 2.82 4.14031L 3.02 4.14031ZM 2.92 0.100314L 3.69 0.100314L 3.69 -0.0996859L 2.92 -0.0996859L 2.92 0.100314ZM 3.59 0.000314131L 3.59 4.09031L 3.79 4.09031L 3.79 0.000314131L 3.59 0.000314131ZM 3.59024 4.09722C 3.60833 4.35878 3.5721 4.62126 3.48381 4.86813L 3.67213 4.93548C 3.76971 4.66262 3.80976 4.37251 3.78976 4.08341L 3.59024 4.09722ZM 3.48381 4.86813C 3.39552 5.11501 3.2571 5.34094 3.07724 5.53172L 3.22276 5.66891C 3.42155 5.45806 3.57455 5.20834 3.67213 4.93548L 3.48381 4.86813ZM 3.08033 5.52858C 2.90776 5.69617 2.703 5.82704 2.47843 5.91329L 2.55013 6.1C 2.79993 6.00406 3.0277 5.85848 3.21967 5.67205L 3.08033 5.52858ZM 2.47843 5.91329C 2.25385 5.99954 2.01413 6.03937 1.77374 6.03038L 1.76626 6.23024C 2.03367 6.24024 2.30033 6.19594 2.55013 6.1L 2.47843 5.91329ZM 8.48 0.640314L 5.77 0.640314L 5.77 0.840314L 8.48 0.840314L 8.48 0.640314ZM 5.67 0.740314L 5.67 2.64031L 5.87 2.64031L 5.87 0.740314L 5.67 0.740314ZM 5.77 2.74031L 8.23 2.74031L 8.23 2.54031L 5.77 2.54031L 5.77 2.74031ZM 8.13 2.64031L 8.13 3.36031L 8.33 3.36031L 8.33 2.64031L 8.13 2.64031ZM 8.23 3.26031L 5.77 3.26031L 5.77 3.46031L 8.23 3.46031L 8.23 3.26031ZM 5.67 3.36031L 5.67 5.26031L 5.87 5.26031L 5.87 3.36031L 5.67 3.36031ZM 5.77 5.36031L 8.5 5.36031L 8.5 5.16031L 5.77 5.16031L 5.77 5.36031ZM 8.4 5.26031L 8.4 6.00031L 8.6 6.00031L 8.6 5.26031L 8.4 5.26031ZM 8.5 5.90031L 4.97 5.90031L 4.97 6.10031L 8.5 6.10031L 8.5 5.90031ZM 5.07 6.00031L 5.07 0.000314131L 4.87 0.000314131L 4.87 6.00031L 5.07 6.00031ZM 4.97 0.100314L 8.47 0.100314L 8.47 -0.0996859L 4.97 -0.0996859L 4.97 0.100314ZM 8.37001 0.00166513L 8.38001 0.741665L 8.57999 0.738963L 8.56999 -0.00103687L 8.37001 0.00166513ZM 11.77 5.90031L 11 5.90031L 11 6.10031L 11.77 6.10031L 11.77 5.90031ZM 11.1 6.00031L 11.1 0.740314L 10.9 0.740314L 10.9 6.00031L 11.1 6.00031ZM 11 0.640314L 9.28 0.640314L 9.28 0.840314L 11 0.840314L 11 0.640314ZM 9.38 0.740314L 9.38 0.000314131L 9.18 0.000314131L 9.18 0.740314L 9.38 0.740314ZM 9.28 0.100314L 13.4 0.100314L 13.4 -0.0996859L 9.28 -0.0996859L 9.28 0.100314ZM 13.3 0.000314131L 13.3 0.740314L 13.5 0.740314L 13.5 0.000314131L 13.3 0.000314131ZM 13.4 0.640314L 11.77 0.640314L 11.77 0.840314L 13.4 0.840314L 13.4 0.640314ZM 11.67 0.740314L 11.67 6.00031L 11.87 6.00031L 11.87 0.740314L 11.67 0.740314ZM 14.14 6.00031L 14.14 5.20031L 13.94 5.20031L 13.94 6.00031L 14.14 6.00031ZM 14.1213 5.25849L 17.3113 0.798489L 17.1487 0.682138L 13.9587 5.14214L 14.1213 5.25849ZM 17.23 0.640314L 14.17 0.640314L 14.17 0.840314L 17.23 0.840314L 17.23 0.640314ZM 14.27 0.740314L 14.27 0.000314131L 14.07 0.000314131L 14.07 0.740314L 14.27 0.740314ZM 14.17 0.100314L 18.17 0.100314L 18.17 -0.0996859L 14.17 -0.0996859L 14.17 0.100314ZM 18.07 0.000314131L 18.07 0.800313L 18.27 0.800313L 18.27 0.000314131L 18.07 0.000314131ZM 18.0887 0.742138L 14.8987 5.20214L 15.0613 5.31849L 18.2513 0.858489L 18.0887 0.742138ZM 14.98 5.36031L 18.21 5.36031L 18.21 5.16031L 14.98 5.16031L 14.98 5.36031ZM 18.11 5.26031L 18.11 6.00031L 18.31 6.00031L 18.31 5.26031L 18.11 5.26031ZM 18.21 5.90031L 14.04 5.90031L 14.04 6.10031L 18.21 6.10031L 18.21 5.90031ZM 21.31 5.90031L 20.54 5.90031L 20.54 6.10031L 21.31 6.10031L 21.31 5.90031ZM 20.64 6.00031L 20.64 0.740314L 20.44 0.740314L 20.44 6.00031L 20.64 6.00031ZM 20.54 0.640314L 18.87 0.640314L 18.87 0.840314L 20.54 0.840314L 20.54 0.640314ZM 18.97 0.740314L 18.97 0.000314131L 18.77 0.000314131L 18.77 0.740314L 18.97 0.740314ZM 18.87 0.100314L 22.99 0.100314L 22.99 -0.0996859L 18.87 -0.0996859L 18.87 0.100314ZM 22.89 0.000314131L 22.89 0.740314L 23.09 0.740314L 23.09 0.000314131L 22.89 0.000314131ZM 22.99 0.640314L 21.31 0.640314L 21.31 0.840314L 22.99 0.840314L 22.99 0.640314ZM 21.21 0.740314L 21.21 6.00031L 21.41 6.00031L 21.41 0.740314L 21.21 0.740314ZM 26.07 6.00031L 26.07 0.000314131L 25.87 0.000314131L 25.87 6.00031L 26.07 6.00031ZM 25.97 0.100314L 28.14 0.100314L 28.14 -0.0996859L 25.97 -0.0996859L 25.97 0.100314ZM 28.1419 0.100296C 28.5669 0.0922706 28.9787 0.247557 29.2926 0.534159L 29.4274 0.386467C 29.0757 0.0653356 28.6143 -0.108661 28.1381 -0.099668L 28.1419 0.100296ZM 29.2945 0.535838C 29.4505 0.67125 29.5749 0.839297 29.6588 1.02809L 29.8415 0.946858C 29.7457 0.731288 29.6037 0.539406 29.4255 0.384788L 29.2945 0.535838ZM 29.6588 1.02809C 29.7427 1.21688 29.7841 1.4218 29.78 1.62835L 29.98 1.63227C 29.9846 1.39642 29.9373 1.16243 29.8415 0.946858L 29.6588 1.02809ZM 29.78 1.63207C 29.7844 1.87829 29.7135 2.11996 29.5768 2.32482L 29.7432 2.43581C 29.9024 2.19709 29.985 1.91546 29.98 1.62855L 29.78 1.63207ZM 29.5774 2.324C 29.4411 2.52393 29.2514 2.68151 29.0298 2.77875L 29.1102 2.96188C 29.3661 2.84957 29.5852 2.66756 29.7426 2.43663L 29.5774 2.324ZM 29.0386 2.96525C 29.3096 3.05495 29.5472 3.22424 29.7205 3.45104L 29.8795 3.32959C 29.6817 3.07085 29.4106 2.87772 29.1014 2.77538L 29.0386 2.96525ZM 29.7213 3.45205C 29.8995 3.67904 29.9943 3.9603 29.99 4.24882L 30.19 4.25181C 30.195 3.9175 30.0851 3.59159 29.8787 3.32857L 29.7213 3.45205ZM 29.99 4.25253C 29.9948 4.46838 29.952 4.68263 29.8646 4.88005L 30.0475 4.961C 30.1468 4.73672 30.1954 4.49332 30.19 4.2481L 29.99 4.25253ZM 29.8646 4.88005C 29.7772 5.07748 29.6474 5.25323 29.4844 5.39482L 29.6156 5.54581C 29.8007 5.38495 29.9482 5.18529 30.0475 4.961L 29.8646 4.88005ZM 29.4822 5.39681C 29.1528 5.70064 28.7194 5.86654 28.2714 5.86032L 28.2686 6.0603C 28.7679 6.06723 29.2508 5.88237 29.6178 5.54382L 29.4822 5.39681ZM 28.2683 5.86033L 25.9683 5.90033L 25.9717 6.1003L 28.2717 6.0603L 28.2683 5.86033ZM 26.77 2.67031L 28.17 2.67031L 28.17 2.47031L 26.77 2.47031L 26.77 2.67031ZM 28.1658 2.67023C 28.3111 2.67629 28.456 2.6506 28.5903 2.59495L 28.5137 2.41018C 28.4063 2.4547 28.2904 2.47525 28.1742 2.4704L 28.1658 2.67023ZM 28.5903 2.59495C 28.7246 2.5393 28.8452 2.45503 28.9436 2.34801L 28.7964 2.21262C 28.7177 2.29824 28.6212 2.36566 28.5137 2.41018L 28.5903 2.59495ZM 28.9406 2.3511C 29.0328 2.25914 29.1059 2.14991 29.1558 2.02966L 28.9711 1.95303C 28.9312 2.04898 28.8729 2.13615 28.7994 2.20953L 28.9406 2.3511ZM 29.1558 2.02966C 29.2057 1.90941 29.2314 1.7805 29.2314 1.65031L 29.0314 1.65031C 29.0314 1.7542 29.0109 1.85707 28.9711 1.95303L 29.1558 2.02966ZM 29.2314 1.65031C 29.2314 1.52012 29.2057 1.39122 29.1558 1.27097L 28.9711 1.3476C 29.0109 1.44356 29.0314 1.54643 29.0314 1.65031L 29.2314 1.65031ZM 29.1558 1.27097C 29.1059 1.15072 29.0328 1.04149 28.9406 0.949528L 28.7994 1.0911C 28.8729 1.16448 28.9312 1.25165 28.9711 1.3476L 29.1558 1.27097ZM 28.9449 0.95408C 28.8516 0.848563 28.7363 0.764863 28.607 0.708917L 28.5276 0.892461C 28.6299 0.936751 28.7212 1.00301 28.7951 1.08655L 28.9449 0.95408ZM 28.607 0.708917C 28.4778 0.652972 28.3378 0.626151 28.197 0.630358L 28.203 0.830269C 28.3144 0.826939 28.4253 0.848171 28.5276 0.892461L 28.607 0.708917ZM 28.2 0.630314L 26.77 0.630314L 26.77 0.830314L 28.2 0.830314L 28.2 0.630314ZM 26.67 0.730314L 26.67 2.57031L 26.87 2.57031L 26.87 0.730314L 26.67 0.730314ZM 26.77 5.36031L 28.32 5.36031L 28.32 5.16031L 26.77 5.16031L 26.77 5.36031ZM 28.3167 5.36026C 28.4668 5.3653 28.6162 5.3371 28.7542 5.27768L 28.6751 5.09399C 28.5642 5.14175 28.4441 5.16442 28.3234 5.16037L 28.3167 5.36026ZM 28.7542 5.27768C 28.8922 5.21827 29.0154 5.12911 29.1149 5.01656L 28.9651 4.88407C 28.8851 4.97454 28.7861 5.04622 28.6751 5.09399L 28.7542 5.27768ZM 29.112 5.01972C 29.3059 4.81856 29.4161 4.55113 29.42 4.27172L 29.22 4.26891C 29.2168 4.49751 29.1267 4.71632 28.968 4.88091L 29.112 5.01972ZM 29.42 4.27031C 29.42 3.97858 29.3041 3.69879 29.0978 3.4925L 28.9564 3.63392C 29.1252 3.8027 29.22 4.03162 29.22 4.27031L 29.42 4.27031ZM 29.0978 3.4925C 28.8915 3.28621 28.6117 3.17031 28.32 3.17031L 28.32 3.37031C 28.5587 3.37031 28.7876 3.46514 28.9564 3.63392L 29.0978 3.4925ZM 28.32 3.17031L 26.77 3.17031L 26.77 3.37031L 28.32 3.37031L 28.32 3.17031ZM 26.67 3.27031L 26.67 5.26031L 26.87 5.26031L 26.87 3.27031L 26.67 3.27031ZM 34.62 0.640314L 31.89 0.640314L 31.89 0.840314L 34.62 0.840314L 34.62 0.640314ZM 31.79 0.740314L 31.79 2.64031L 31.99 2.64031L 31.99 0.740314L 31.79 0.740314ZM 31.89 2.74031L 34.35 2.74031L 34.35 2.54031L 31.89 2.54031L 31.89 2.74031ZM 34.25 2.64031L 34.25 3.36031L 34.45 3.36031L 34.45 2.64031L 34.25 2.64031ZM 34.35 3.26031L 31.89 3.26031L 31.89 3.46031L 34.35 3.46031L 34.35 3.26031ZM 31.79 3.36031L 31.79 5.26031L 31.99 5.26031L 31.99 3.36031L 31.79 3.36031ZM 31.89 5.36031L 34.62 5.36031L 34.62 5.16031L 31.89 5.16031L 31.89 5.36031ZM 34.52 5.26031L 34.52 6.00031L 34.72 6.00031L 34.72 5.26031L 34.52 5.26031ZM 34.62 5.90031L 31.12 5.90031L 31.12 6.10031L 34.62 6.10031L 34.62 5.90031ZM 31.22 6.00031L 31.22 0.000314131L 31.02 0.000314131L 31.02 6.00031L 31.22 6.00031ZM 31.12 0.100314L 34.62 0.100314L 34.62 -0.0996859L 31.12 -0.0996859L 31.12 0.100314ZM 34.52 0.000314131L 34.52 0.740314L 34.72 0.740314L 34.72 0.000314131L 34.52 0.000314131ZM 35.93 6.00031L 35.93 0.000314131L 35.73 0.000314131L 35.73 6.00031L 35.93 6.00031ZM 35.83 0.100314L 36.6 0.100314L 36.6 -0.0996859L 35.83 -0.0996859L 35.83 0.100314ZM 36.5 0.000314131L 36.5 6.00031L 36.7 6.00031L 36.7 0.000314131L 36.5 0.000314131ZM 36.6 5.90031L 35.83 5.90031L 35.83 6.10031L 36.6 6.10031L 36.6 5.90031Z"/>
</defs>
</svg>
